<svg width="24" height="26" viewBox="0 0 24 26" fill="none" xmlns="http://www.w3.org/2000/svg">
<path d="M16.3093 8.38462L15.8477 21.3077M8.00068 8.38462L8.46227 21.3077M12.155 8.38462V21.3077M8.46227 4.69231V2.38462C8.46174 2.20264 8.49719 2.02235 8.5666 1.85412C8.636 1.68589 8.73798 1.53304 8.86667 1.40436C8.99537 1.27568 9.14824 1.17371 9.31648 1.10432C9.48473 1.03492 9.66504 0.999473 9.84704 1.00001H14.463C14.645 0.999473 14.8253 1.03492 14.9935 1.10432C15.1618 1.17371 15.3146 1.27568 15.4433 1.40436C15.572 1.53304 15.674 1.68589 15.7434 1.85412C15.8128 2.02235 15.8483 2.20264 15.8477 2.38462V4.69231M2 4.69231H22.31M3.84636 4.69231L5.00034 23.1538C5.05515 24.2206 5.8312 25 6.8467 25H17.4633C18.4828 25 19.2445 24.2206 19.3097 23.1538L20.4636 4.69231" stroke="#ffffff" stroke-width="1.6" stroke-linecap="round" stroke-linejoin="round"/>
</svg>
